<?xml version="1.0" standalone="no"?>
<!DOCTYPE svg PUBLIC "-//W3C//DTD SVG 20010904//EN"
 "http://www.w3.org/TR/2001/REC-SVG-20010904/DTD/svg10.dtd">
<svg version="1.0" xmlns="http://www.w3.org/2000/svg"
 width="907.000000pt" height="907.000000pt" viewBox="0 0 907.000000 907.000000"
 preserveAspectRatio="xMidYMid meet">
<metadata>
Created by potrace 1.14, written by Peter Selinger 2001-2017
</metadata>
<g transform="translate(0.000000,907.000000) scale(0.100000,-0.100000)"
fill="#000000" stroke="none">
<path d="M3608 8815 c-3 -3 -20 -7 -37 -7 -17 -1 -28 -4 -26 -8 2 -4 -6 -5
-19 -3 -55 11 -244 -138 -349 -275 -95 -124 -174 -274 -206 -392 -18 -68 -27
-168 -20 -230 5 -50 46 -216 65 -264 6 -16 4 -18 -12 -11 -38 17 -146 14 -199
-6 -55 -20 -124 -86 -126 -119 -1 -11 -2 -26 -2 -32 -2 -26 37 -124 63 -163
36 -52 67 -78 132 -111 61 -31 169 -43 232 -26 l38 11 -6 -51 c-12 -86 -44
-128 -109 -140 -20 -4 -33 1 -52 20 -20 20 -25 21 -25 8 0 -22 56 -55 83 -48
12 3 33 12 47 21 23 15 24 15 16 -4 -63 -149 -81 -259 -52 -323 18 -40 67 -75
91 -66 10 4 15 0 15 -11 0 -48 76 -155 121 -170 20 -7 28 -68 38 -265 l6 -136
-110 -2 c-60 -1 -121 -4 -135 -7 -14 -2 -65 -7 -115 -10 -49 -3 -130 -12 -180
-20 -107 -17 -172 -27 -201 -30 -146 -19 -703 -182 -738 -216 -6 -5 -16 -9
-23 -9 -7 0 -45 -16 -85 -36 -40 -20 -103 -46 -139 -59 l-65 -23 3 77 c2 56 0
69 -7 48 -5 -16 -10 -52 -12 -80 -3 -51 -4 -52 -60 -87 -94 -58 -146 -111
-211 -218 -147 -243 -211 -639 -211 -1322 0 -301 19 -481 63 -583 33 -74 96
-115 155 -99 31 9 31 8 32 -27 1 -62 14 -219 24 -294 41 -321 108 -491 216
-548 30 -17 44 -31 47 -49 l4 -25 2 26 c1 20 7 28 29 32 64 13 108 77 132 192
9 39 14 165 15 360 2 165 6 316 10 335 20 100 63 190 90 190 18 0 41 -51 56
-120 9 -48 12 -146 11 -370 -3 -369 10 -544 54 -719 37 -148 92 -225 169 -236
65 -10 102 14 142 95 18 36 35 80 38 99 3 19 7 37 9 40 5 7 15 115 21 221 3
41 7 91 10 110 3 19 7 56 10 82 10 105 48 229 82 269 19 23 51 13 68 -21 21
-40 44 -186 40 -248 -4 -60 -50 -259 -72 -314 -16 -39 -21 -227 -9 -318 23
-167 25 -177 42 -250 39 -161 142 -386 328 -712 113 -197 177 -297 280 -436
72 -97 78 -109 106 -214 16 -61 40 -132 53 -157 53 -105 209 -167 351 -140 62
11 193 73 275 129 76 51 356 296 437 381 126 133 404 493 449 582 14 26 29 40
50 46 18 4 30 14 30 24 0 9 10 24 22 32 12 9 20 22 17 30 -3 8 4 24 15 36 12
13 21 29 21 36 0 7 4 13 9 13 4 0 20 11 36 26 26 24 26 26 10 44 -17 18 -15
25 43 157 84 193 106 265 127 408 3 22 10 42 15 43 6 2 10 10 10 18 0 9 5 12
11 8 8 -5 10 29 6 124 -6 134 -21 218 -56 313 -11 29 -29 87 -41 126 -12 40
-25 73 -29 73 -4 0 -8 19 -10 42 -1 23 -4 45 -7 50 -3 4 15 8 39 8 56 0 144
47 237 128 36 31 67 59 70 62 3 3 42 38 88 79 82 73 82 73 82 43 0 -49 39
-260 60 -331 34 -107 85 -182 144 -206 166 -69 373 127 484 460 67 202 99 424
127 895 7 117 14 218 21 290 2 30 6 78 9 105 15 190 50 360 79 384 22 19 29
-31 31 -234 2 -181 8 -220 42 -257 9 -10 26 -18 38 -18 51 0 102 82 159 257
15 46 32 85 36 88 11 7 35 -38 44 -80 17 -84 19 -138 21 -475 2 -334 7 -472
19 -540 3 -14 7 -41 10 -61 9 -60 39 -132 66 -160 43 -44 80 -48 143 -19 133
63 264 291 342 595 32 123 77 375 89 495 3 30 10 96 15 145 6 50 15 160 21
245 6 85 13 182 15 215 2 33 7 128 11 210 4 83 8 157 10 165 1 8 3 39 3 69 1
63 11 62 17 -1 2 -24 6 -68 9 -98 13 -140 51 -223 105 -230 49 -7 73 2 114 45
110 113 184 429 186 795 1 181 -9 461 -20 565 -5 50 -12 128 -15 175 -7 105
-11 139 -31 260 -16 104 -31 151 -51 163 -7 4 -13 12 -13 18 0 5 -12 28 -27
52 -15 23 -33 52 -39 63 -28 52 -209 262 -283 328 -35 32 -104 94 -131 119
-71 65 -282 211 -425 295 -207 120 -302 164 -573 268 -298 114 -561 171 -949
204 l-142 13 -4 41 -4 41 -1 -47 -2 -47 -82 1 c-88 1 -303 -15 -303 -22 0 -1
-16 -3 -35 -4 -53 -4 -196 -34 -280 -58 -65 -18 -104 -21 -290 -23 -169 -1
-228 -5 -274 -18 -32 -10 -60 -16 -62 -15 -1 2 1 19 5 38 11 52 -4 126 -36
177 -15 25 -42 69 -60 98 -34 56 -78 94 -134 118 -34 14 -179 23 -191 12z
m-108 -39 c0 -2 -7 -7 -16 -10 -8 -3 -12 -2 -9 4 6 10 25 14 25 6z m-40 -20
c0 -2 -12 -11 -27 -20 l-28 -17 24 20 c23 21 31 25 31 17z m-154 -128 c-169
-167 -287 -394 -320 -618 -14 -95 -26 -80 -14 18 9 80 65 242 113 327 55 99
146 215 231 294 42 39 78 71 80 71 2 0 -38 -42 -90 -92z m684 -70 c11 -24 20
-61 20 -83 0 -45 -16 -112 -30 -120 -5 -3 -5 7 -1 23 10 32 7 90 -7 170 -5 28
-7 52 -5 52 2 0 13 -19 23 -42z m-34 -171 c-9 -30 -22 -60 -30 -66 -9 -8 -6 9
10 46 13 32 24 67 25 78 0 11 3 14 6 8 2 -7 -3 -37 -11 -66z m-1038 -778
c-113 -12 -166 -35 -199 -86 -11 -15 -19 -23 -19 -17 0 21 42 65 83 85 46 24
116 36 167 30 28 -4 22 -6 -32 -12z m-108 -49 c0 -5 -4 -10 -9 -10 -18 0 -51
-87 -51 -136 l0 -49 -20 25 c-33 42 -26 92 18 140 38 39 62 51 62 30z m-35
-247 c78 -102 200 -142 314 -103 49 16 51 16 51 -1 0 -41 -180 -40 -261 1 -50
26 -108 78 -132 119 -27 46 -13 38 28 -16z m384 -285 c6 -41 4 -152 -5 -213
-5 -33 -9 -93 -9 -132 0 -60 -3 -73 -16 -73 -17 0 -40 22 -58 57 -18 36 -23
91 -12 142 11 54 82 241 91 241 3 0 7 -10 9 -22z m119 -382 c9 -139 8 -201 -3
-205 -13 -6 -72 92 -87 144 -21 72 -17 188 8 265 3 9 19 -10 41 -49 31 -56 36
-74 41 -155z m2183 -2398 c3 -4 15 -70 28 -146 l22 -137 -24 -70 c-38 -112
-116 -260 -226 -433 -36 -57 -77 -124 -91 -150 -49 -90 -64 -112 -85 -119 -24
-9 -97 -5 -106 5 -4 4 -19 45 -34 92 -15 47 -41 119 -57 160 -41 104 -50 164
-34 243 6 34 10 38 29 33 33 -8 43 3 62 69 10 33 20 63 24 67 4 5 12 -18 19
-50 14 -66 41 -102 78 -102 70 0 140 147 239 500 l15 56 68 -4 c37 -3 70 -9
73 -14z"/>
<path d="M2176 6323 c-3 -16 -7 -70 -8 -121 -2 -72 -6 -95 -18 -102 -13 -8
-13 -9 1 -10 12 0 16 -14 17 -71 2 -97 12 -102 12 -6 l0 77 48 1 c26 1 50 1
55 0 4 0 7 3 7 9 0 5 -23 9 -52 7 l-53 -2 3 123 c3 119 -1 150 -12 95z"/>
<path d="M2036 5973 c-6 -14 -5 -15 5 -6 7 7 10 15 7 18 -3 3 -9 -2 -12 -12z"/>
<path d="M2171 5914 c0 -11 3 -14 6 -6 3 7 2 16 -1 19 -3 4 -6 -2 -5 -13z"/>
<path d="M6931 3074 c0 -11 3 -14 6 -6 3 7 2 16 -1 19 -3 4 -6 -2 -5 -13z"/>
<path d="M6928 3005 c-3 -27 -8 -61 -12 -75 -6 -25 -9 -45 -22 -125 -3 -22 -8
-49 -10 -60 -45 -256 -54 -322 -54 -387 0 -66 3 -81 23 -104 23 -26 87 -42 87
-21 0 5 8 21 19 35 10 15 21 41 25 57 5 27 15 174 16 250 0 18 3 25 8 18 4 -7
7 -32 7 -57 -1 -25 3 -43 7 -40 4 3 8 23 8 44 0 27 7 45 22 60 21 19 21 20 2
20 -17 0 -21 7 -23 47 -3 59 -11 71 -11 17 0 -21 -4 -45 -9 -53 -5 -8 -10 31
-12 102 -3 89 -8 119 -20 133 -16 18 -36 93 -42 159 -2 22 -4 16 -9 -20z"/>
<path d="M1196 2300 c-5 -14 -17 -44 -27 -67 -16 -35 -19 -67 -19 -215 0 -300
10 -378 47 -378 7 0 13 -8 14 -17 2 -57 19 -83 19 -30 0 26 6 39 19 47 32 17
44 74 38 179 -6 99 -7 108 -25 176 -6 22 -14 76 -17 119 -4 43 -11 91 -17 105
-6 14 -14 44 -17 66 -7 37 -8 38 -15 15z"/>
<path d="M5988 2233 c-4 -16 -11 -20 -26 -16 -17 4 -22 -1 -27 -23 -4 -16 -9
-40 -12 -54 -3 -14 -7 -34 -8 -45 -1 -11 -5 -49 -9 -85 -5 -36 -11 -94 -15
-130 -6 -61 -7 -64 -34 -65 -38 -3 -47 -15 -10 -15 l31 0 3 -79 c2 -44 7 -82
11 -86 3 -3 29 -12 57 -20 44 -11 51 -11 51 1 0 8 4 14 9 14 5 0 11 17 14 38
3 20 10 60 15 87 12 63 7 178 -13 275 -8 41 -19 109 -23 150 -5 47 -10 67 -14
53z"/>
<path d="M6261 1701 c-17 -30 -13 -43 11 -39 25 3 32 32 13 48 -10 9 -16 7
-24 -9z"/>
<path d="M2307 1580 c-4 -33 -13 -70 -21 -83 -9 -15 -14 -58 -15 -137 -1 -63
-5 -171 -10 -240 -15 -210 -3 -283 49 -297 11 -3 21 -15 23 -27 4 -21 4 -21 6
1 0 12 10 27 20 33 11 5 25 27 32 47 6 21 17 44 23 52 9 12 8 13 -3 6 -11 -6
-12 -5 -5 6 9 15 11 20 13 43 0 8 11 17 24 19 l22 4 -22 2 c-14 0 -23 8 -24
19 -1 44 -10 86 -19 92 -14 9 -21 56 -26 205 -4 108 -10 149 -24 180 -10 22
-21 59 -23 83 -6 63 -13 60 -20 -8z"/>
<path d="M1232 1199 c-11 -26 -6 -76 9 -85 14 -8 22 45 12 79 l-10 32 -11 -26z"/>
</g>
</svg>
